<?xml version="1.0" encoding="UTF-8"?>
<svg id="Livello_1" data-name="Livello 1" xmlns="http://www.w3.org/2000/svg" width="100mm" height="42.82mm" viewBox="0 0 283.46 121.37">
  <defs>
    <style>
      .cls-1 {
        font-family: Inter-ExtraBold, Inter;
        font-size: 18.95px;
        font-variation-settings: 'opsz' 14, 'wght' 800;
        font-weight: 700;
      }

      .cls-1, .cls-2 {
        fill: #1d1d1c;
      }

      .cls-3 {
        fill: #e9560e;
      }

      .cls-4 {
        letter-spacing: 0em;
      }

      .cls-5 {
        fill: #00aca9;
      }

      .cls-6 {
        letter-spacing: -.02em;
      }

      .cls-7 {
        fill: #7c5ea5;
      }

      .cls-8 {
        letter-spacing: 0em;
      }
    </style>
  </defs>
  <text class="cls-1" transform="translate(84.31 94.56)"><tspan x="0" y="0">Nu</tspan><tspan class="cls-6" x="26.55" y="0">o</tspan><tspan class="cls-4" x="37.96" y="0">vi linguaggi della</tspan><tspan x="0" y="19.81">comuni</tspan><tspan class="cls-8" x="70.04" y="19.81">c</tspan><tspan x="81.5" y="19.81">azione</tspan></text>
  <g>
    <g>
      <path class="cls-2" d="M89.56,67.83c-.23-.59-.7-1.23-1.85-1.23-1.05,0-1.83.53-1.83,1.27,0,.66.46,1,1.47,1.25l1.27.31c1.53.37,2.27,1.13,2.27,2.32,0,1.48-1.35,2.56-3.34,2.56-1.75,0-2.95-.77-3.25-2.23l1.25-.31c.23.92.91,1.38,1.98,1.38,1.23,0,2-.6,2-1.34,0-.59-.41-1-1.27-1.2l-1.43-.33c-1.57-.37-2.27-1.16-2.27-2.34,0-1.45,1.34-2.47,3.14-2.47,1.69,0,2.62.81,3.03,2.03l-1.18.33Z"/>
      <path class="cls-2" d="M92.23,69.9c0-2.61,1.54-4.43,3.85-4.43,1.8,0,3.16,1.07,3.39,2.67h-1.31c-.2-.78-.89-1.49-2.05-1.49-1.54,0-2.56,1.27-2.56,3.21s1,3.27,2.56,3.27c1.02,0,1.8-.56,2.05-1.49h1.31c-.22,1.51-1.47,2.67-3.36,2.67-2.41,0-3.88-1.85-3.88-4.41Z"/>
      <path class="cls-2" d="M106.51,65.58h1.31v8.55h-1.31v-1.45h-.09c-.4.87-1.25,1.56-2.54,1.56-1.6,0-2.76-1.05-2.76-3.23v-5.43h1.31v5.35c0,1.25.78,2.05,1.87,2.05.98,0,2.21-.73,2.21-2.34v-5.06Z"/>
      <path class="cls-2" d="M109.66,69.9c0-2.67,1.56-4.43,3.88-4.43s3.88,1.76,3.88,4.43-1.56,4.41-3.88,4.41-3.88-1.76-3.88-4.41ZM116.09,69.9c0-1.72-.8-3.25-2.56-3.25s-2.56,1.54-2.56,3.25.8,3.23,2.56,3.23,2.56-1.51,2.56-3.23Z"/>
      <path class="cls-2" d="M120.55,74.14h-1.31v-11.4h1.31v11.4Z"/>
      <path class="cls-2" d="M122.39,71.71c0-1.96,1.73-2.31,3.32-2.52,1.56-.2,2.21-.14,2.21-.78v-.04c0-1.1-.6-1.74-1.8-1.74s-1.94.67-2.23,1.29l-1.25-.45c.67-1.56,2.14-2,3.43-2,1.09,0,3.16.31,3.16,3.03v5.64h-1.31v-1.16h-.07c-.27.56-1.05,1.36-2.54,1.36-1.63,0-2.92-.96-2.92-2.63ZM127.92,71.04v-1.2c-.22.27-1.72.42-2.27.49-1.02.13-1.94.45-1.94,1.45,0,.91.76,1.38,1.8,1.38,1.56,0,2.41-1.05,2.41-2.12Z"/>
      <path class="cls-2" d="M135.34,69.88c0-2.7,1.49-4.41,3.65-4.41,1.67,0,2.18,1.02,2.47,1.47h.11v-4.21h1.31v11.4h-1.27v-1.31h-.16c-.29.47-.85,1.49-2.49,1.49-2.14,0-3.63-1.71-3.63-4.43ZM141.6,69.86c0-1.92-.85-3.21-2.45-3.21s-2.49,1.4-2.49,3.21.85,3.27,2.49,3.27,2.45-1.34,2.45-3.27Z"/>
      <path class="cls-2" d="M144.94,63.27c0-.49.42-.89.94-.89s.94.4.94.89-.42.89-.94.89-.94-.4-.94-.89ZM145.2,65.58h1.31v8.55h-1.31v-8.55Z"/>
    </g>
    <g>
      <polygon class="cls-7" points="3.76 76.34 3.76 94.39 12.78 85.37 3.76 76.34"/>
      <polygon class="cls-5" points="3.76 4.12 3.76 76.34 39.85 40.23 3.76 4.12"/>
      <polygon class="cls-7" points="57.89 4.12 48.87 13.15 57.89 22.17 57.89 4.12"/>
      <polygon class="cls-3" points="21.81 58.28 57.89 94.39 57.89 22.17 21.81 58.28"/>
    </g>
  </g>
</svg>