<?xml version="1.0" encoding="UTF-8"?>
<svg id="Livello_1" data-name="Livello 1" xmlns="http://www.w3.org/2000/svg" width="100mm" height="42.82mm" viewBox="0 0 283.46 121.37">
  <defs>
    <style>
      .cls-1 {
        fill: #e9560e;
      }

      .cls-2 {
        fill: #1d1d1c;
      }

      .cls-3 {
        fill: #00aca9;
      }

      .cls-4 {
        fill: #7c5ea5;
      }
    </style>
  </defs>
  <g>
    <path class="cls-2" d="M85.38,94.56v-13.79h3.59l3.85,6.23c.25.41.49.84.73,1.28.24.44.47.93.71,1.47.23.54.47,1.15.71,1.85h-.31c-.04-.51-.08-1.07-.12-1.68s-.08-1.22-.11-1.8c-.03-.58-.05-1.08-.05-1.48v-5.87h3.35v13.79h-3.6l-3.53-5.71c-.31-.52-.6-1.02-.86-1.49-.26-.47-.51-.98-.77-1.53-.26-.55-.56-1.19-.9-1.93h.38c.04.66.08,1.3.12,1.93s.07,1.2.1,1.72.04.95.04,1.3v5.71h-3.35Z"/>
    <path class="cls-2" d="M103.47,94.69c-.72,0-1.35-.16-1.89-.48-.54-.32-.96-.77-1.25-1.36-.3-.59-.44-1.27-.44-2.04v-6.59h3.23v5.96c0,.58.15,1.04.45,1.37.3.33.71.5,1.24.5.36,0,.67-.08.93-.23.26-.15.47-.37.62-.66.15-.29.22-.63.22-1.03v-5.9h3.23v10.35h-3.04l-.06-2.61h.14c-.26.83-.66,1.49-1.2,1.99s-1.26.75-2.17.75Z"/>
    <path class="cls-2" d="M116.72,94.76c-1.08,0-2.01-.22-2.79-.67s-1.38-1.07-1.79-1.87-.62-1.73-.62-2.79.21-2,.62-2.8,1.01-1.42,1.79-1.87c.78-.45,1.71-.67,2.79-.67s2.01.22,2.79.67c.78.45,1.37,1.07,1.79,1.87.41.8.62,1.73.62,2.8s-.21,1.99-.62,2.79c-.41.8-1.01,1.42-1.79,1.87-.78.45-1.71.67-2.79.67ZM116.72,92.29c.41,0,.76-.12,1.05-.36.28-.24.5-.58.64-1.01.14-.43.22-.93.22-1.51s-.07-1.08-.22-1.5c-.15-.43-.36-.76-.64-1-.28-.23-.63-.35-1.05-.35s-.76.12-1.05.35c-.28.23-.5.57-.64,1-.15.43-.22.93-.22,1.5s.07,1.08.22,1.51c.14.43.36.77.64,1.01.28.24.63.36,1.05.36Z"/>
    <path class="cls-2" d="M126.22,94.56l-3.75-10.35h3.41l1.54,5.06c.21.68.39,1.37.55,2.08.15.71.31,1.46.47,2.25h-.59c.15-.79.31-1.54.46-2.24.15-.71.33-1.4.53-2.09l1.52-5.06h3.37l-3.77,10.35h-3.74Z"/>
    <path class="cls-2" d="M136.6,83c-.46,0-.85-.15-1.18-.46-.33-.31-.49-.67-.49-1.1s.16-.8.49-1.1c.33-.3.72-.45,1.18-.45s.86.15,1.18.45c.33.3.49.67.49,1.11s-.16.79-.49,1.09c-.33.3-.72.45-1.18.45ZM134.99,94.56v-10.35h3.23v10.35h-3.23Z"/>
    <path class="cls-2" d="M147.74,80.77v13.79h-3.23v-13.79h3.23Z"/>
    <path class="cls-2" d="M151.48,83c-.46,0-.85-.15-1.18-.46-.33-.31-.49-.67-.49-1.1s.16-.8.49-1.1c.33-.3.72-.45,1.18-.45s.86.15,1.18.45c.33.3.49.67.49,1.11s-.16.79-.49,1.09c-.33.3-.72.45-1.18.45ZM149.87,94.56v-10.35h3.23v10.35h-3.23Z"/>
    <path class="cls-2" d="M158.47,88.66v5.9h-3.23v-10.35h3.04l.06,2.61h-.14c.25-.82.65-1.48,1.19-1.99s1.27-.75,2.18-.75c.72,0,1.35.16,1.89.48s.95.77,1.25,1.36c.3.59.44,1.27.44,2.05v6.59h-3.23v-5.96c0-.58-.15-1.04-.44-1.37s-.71-.5-1.24-.5c-.35,0-.65.08-.92.23-.27.15-.48.37-.62.65-.15.28-.22.63-.22,1.04Z"/>
    <path class="cls-2" d="M172.05,98.65c-.9,0-1.69-.11-2.36-.34-.67-.23-1.22-.55-1.63-.95-.42-.41-.69-.88-.81-1.42l2.8-.57c.06.19.18.36.34.51.17.16.39.28.66.38s.6.14.98.14c.66,0,1.17-.15,1.52-.44s.53-.75.53-1.37v-1.83h-.25c-.12.31-.31.59-.55.84-.24.25-.55.45-.92.6-.37.15-.82.22-1.33.22-.76,0-1.45-.18-2.08-.53s-1.13-.9-1.5-1.65c-.38-.74-.56-1.7-.56-2.85s.19-2.21.58-2.99c.39-.78.9-1.37,1.52-1.74s1.3-.57,2.03-.57c.55,0,1.02.09,1.41.28.39.19.72.42.97.72.26.29.45.6.58.91h.09v-1.78h3.19v10.11c0,.95-.22,1.75-.66,2.39-.44.64-1.05,1.12-1.84,1.45s-1.69.49-2.72.49ZM172.13,92.05c.41,0,.77-.1,1.06-.31s.51-.52.67-.92.23-.88.23-1.44-.08-1.06-.23-1.47c-.15-.41-.38-.73-.66-.96-.29-.23-.64-.34-1.06-.34s-.76.12-1.05.35-.5.55-.65.97c-.15.41-.22.9-.22,1.45s.07,1.03.22,1.43c.15.4.37.71.65.92s.64.32,1.05.32Z"/>
    <path class="cls-2" d="M182.99,94.69c-.72,0-1.35-.16-1.89-.48-.54-.32-.96-.77-1.25-1.36-.3-.59-.44-1.27-.44-2.04v-6.59h3.23v5.96c0,.58.15,1.04.45,1.37.3.33.71.5,1.24.5.36,0,.67-.08.93-.23.26-.15.47-.37.62-.66.15-.29.22-.63.22-1.03v-5.9h3.23v10.35h-3.04l-.06-2.61h.14c-.26.83-.66,1.49-1.2,1.99s-1.26.75-2.17.75Z"/>
    <path class="cls-2" d="M194.33,94.75c-.66,0-1.25-.11-1.76-.34-.52-.23-.92-.56-1.21-1.02-.29-.45-.43-1.02-.43-1.7,0-.57.1-1.06.3-1.45.2-.39.48-.71.84-.96.36-.25.77-.43,1.23-.56.46-.13.96-.22,1.48-.26.59-.05,1.06-.1,1.42-.16.36-.06.62-.15.79-.26.17-.12.25-.28.25-.49v-.04c0-.24-.06-.44-.17-.61-.11-.17-.27-.29-.48-.38-.21-.09-.46-.13-.76-.13s-.56.04-.79.13c-.23.09-.42.21-.57.37-.15.16-.25.35-.32.56l-2.92-.38c.14-.59.4-1.11.8-1.56.4-.45.92-.8,1.56-1.05s1.4-.38,2.26-.38c.64,0,1.24.08,1.8.23.56.15,1.05.37,1.47.67.42.29.75.65.98,1.08s.35.92.35,1.48v7.02h-3.04v-1.45h-.08c-.18.36-.42.66-.71.9-.29.24-.62.42-1,.55-.38.13-.81.19-1.29.19ZM195.31,92.61c.36,0,.69-.07.99-.22s.53-.35.7-.61c.17-.26.26-.56.26-.9v-.99c-.09.05-.21.1-.35.14-.14.04-.29.08-.46.12s-.33.06-.5.09c-.17.03-.33.05-.48.08-.32.04-.58.12-.81.22-.22.1-.39.24-.51.41-.12.17-.18.37-.18.6s.06.42.18.58.27.28.47.36c.2.08.43.12.68.12Z"/>
    <path class="cls-2" d="M207.35,98.65c-.9,0-1.69-.11-2.36-.34-.67-.23-1.22-.55-1.63-.95-.42-.41-.69-.88-.81-1.42l2.8-.57c.06.19.18.36.34.51.17.16.39.28.66.38s.6.14.98.14c.66,0,1.17-.15,1.52-.44s.53-.75.53-1.37v-1.83h-.25c-.12.31-.31.59-.55.84-.24.25-.55.45-.92.6-.37.15-.82.22-1.33.22-.76,0-1.45-.18-2.08-.53s-1.13-.9-1.5-1.65c-.38-.74-.56-1.7-.56-2.85s.19-2.21.58-2.99c.39-.78.9-1.37,1.52-1.74s1.3-.57,2.03-.57c.55,0,1.02.09,1.41.28.39.19.72.42.97.72.26.29.45.6.58.91h.09v-1.78h3.19v10.11c0,.95-.22,1.75-.66,2.39-.44.64-1.05,1.12-1.84,1.45s-1.69.49-2.72.49ZM207.44,92.05c.41,0,.77-.1,1.06-.31s.51-.52.67-.92.23-.88.23-1.44-.08-1.06-.23-1.47c-.15-.41-.38-.73-.66-.96-.29-.23-.64-.34-1.06-.34s-.76.12-1.05.35-.5.55-.65.97c-.15.41-.22.9-.22,1.45s.07,1.03.22,1.43c.15.4.37.71.65.92s.64.32,1.05.32Z"/>
    <path class="cls-2" d="M219.47,98.65c-.9,0-1.69-.11-2.36-.34-.67-.23-1.22-.55-1.63-.95-.42-.41-.69-.88-.81-1.42l2.8-.57c.06.19.18.36.34.51.17.16.39.28.66.38s.6.14.98.14c.66,0,1.17-.15,1.52-.44s.53-.75.53-1.37v-1.83h-.25c-.12.31-.31.59-.55.84-.24.25-.55.45-.92.6-.37.15-.82.22-1.33.22-.76,0-1.45-.18-2.08-.53s-1.13-.9-1.5-1.65c-.38-.74-.56-1.7-.56-2.85s.19-2.21.58-2.99c.39-.78.9-1.37,1.52-1.74s1.3-.57,2.03-.57c.55,0,1.02.09,1.41.28.39.19.72.42.97.72.26.29.45.6.58.91h.09v-1.78h3.19v10.11c0,.95-.22,1.75-.66,2.39-.44.64-1.05,1.12-1.84,1.45s-1.69.49-2.72.49ZM219.55,92.05c.41,0,.77-.1,1.06-.31s.51-.52.67-.92.23-.88.23-1.44-.08-1.06-.23-1.47c-.15-.41-.38-.73-.66-.96-.29-.23-.64-.34-1.06-.34s-.76.12-1.05.35-.5.55-.65.97c-.15.41-.22.9-.22,1.45s.07,1.03.22,1.43c.15.4.37.71.65.92s.64.32,1.05.32Z"/>
    <path class="cls-2" d="M228.42,83c-.46,0-.85-.15-1.18-.46-.33-.31-.49-.67-.49-1.1s.16-.8.49-1.1c.33-.3.72-.45,1.18-.45s.86.15,1.18.45c.33.3.49.67.49,1.11s-.16.79-.49,1.09c-.33.3-.72.45-1.18.45ZM226.81,94.56v-10.35h3.23v10.35h-3.23Z"/>
    <path class="cls-2" d="M240.08,94.71c-.77,0-1.46-.2-2.09-.6-.63-.4-1.13-.99-1.5-1.78-.37-.79-.56-1.77-.56-2.94s.19-2.21.58-2.99c.38-.79.89-1.37,1.52-1.75.63-.38,1.3-.57,2.02-.57.55,0,1.02.09,1.41.28.39.19.71.43.96.72.25.29.44.59.57.91h.07v-5.22h3.22v13.79h-3.18v-1.67h-.11c-.14.31-.33.6-.59.88-.26.28-.57.5-.95.68-.38.18-.83.26-1.37.26ZM241.18,92.19c.41,0,.76-.12,1.05-.35s.52-.56.67-.98.23-.91.23-1.47-.08-1.07-.23-1.49c-.15-.42-.38-.74-.67-.96-.29-.23-.64-.34-1.05-.34s-.76.12-1.05.35-.5.56-.65.97c-.15.42-.22.91-.22,1.47s.07,1.04.22,1.47c.15.42.37.75.65.98s.64.35,1.05.35Z"/>
    <path class="cls-2" d="M253.24,94.76c-1.08,0-2.01-.21-2.79-.64-.78-.43-1.38-1.04-1.8-1.84s-.62-1.75-.62-2.85.21-1.99.62-2.79c.42-.8,1.01-1.43,1.77-1.87.76-.45,1.67-.67,2.7-.67.73,0,1.4.11,2,.34.61.23,1.14.57,1.58,1.01s.79,1,1.04,1.65c.24.65.37,1.41.37,2.27v.81h-8.94v-1.88h7.4l-1.51.44c0-.48-.07-.89-.22-1.24-.14-.34-.36-.61-.64-.8-.28-.18-.64-.28-1.06-.28s-.77.09-1.06.28-.51.45-.66.79c-.15.34-.23.73-.23,1.18v1.35c0,.53.09.97.26,1.33.18.36.42.62.74.8s.68.26,1.1.26c.29,0,.55-.04.79-.12s.44-.2.61-.36c.17-.16.3-.36.38-.58l2.88.47c-.17.59-.47,1.11-.89,1.55-.42.44-.96.78-1.6,1.02-.64.24-1.39.36-2.23.36Z"/>
    <path class="cls-2" d="M263.03,80.77v13.79h-3.23v-13.79h3.23Z"/>
    <path class="cls-2" d="M268.39,80.77v13.79h-3.23v-13.79h3.23Z"/>
    <path class="cls-2" d="M273.43,94.75c-.66,0-1.25-.11-1.76-.34-.52-.23-.92-.56-1.21-1.02-.29-.45-.43-1.02-.43-1.7,0-.57.1-1.06.3-1.45.2-.39.48-.71.84-.96.36-.25.77-.43,1.23-.56.46-.13.96-.22,1.48-.26.59-.05,1.06-.1,1.42-.16.36-.06.62-.15.79-.26.17-.12.25-.28.25-.49v-.04c0-.24-.06-.44-.17-.61-.11-.17-.27-.29-.48-.38-.21-.09-.46-.13-.76-.13s-.56.04-.79.13c-.23.09-.42.21-.57.37-.15.16-.25.35-.32.56l-2.92-.38c.14-.59.4-1.11.8-1.56.4-.45.92-.8,1.56-1.05s1.4-.38,2.26-.38c.64,0,1.24.08,1.8.23.56.15,1.05.37,1.47.67.42.29.75.65.98,1.08s.35.92.35,1.48v7.02h-3.04v-1.45h-.08c-.18.36-.42.66-.71.9-.29.24-.62.42-1,.55-.38.13-.81.19-1.29.19ZM274.41,92.61c.36,0,.69-.07.99-.22s.53-.35.7-.61c.17-.26.26-.56.26-.9v-.99c-.09.05-.21.1-.35.14-.14.04-.29.08-.46.12s-.33.06-.5.09c-.17.03-.33.05-.48.08-.32.04-.58.12-.81.22-.22.1-.39.24-.51.41-.12.17-.18.37-.18.6s.06.42.18.58.27.28.47.36c.2.08.43.12.68.12Z"/>
    <path class="cls-2" d="M90.17,114.57c-1.08,0-2.01-.22-2.79-.67s-1.38-1.07-1.79-1.87c-.42-.8-.62-1.73-.62-2.79s.21-2,.62-2.8c.42-.8,1.01-1.42,1.79-1.87s1.71-.67,2.79-.67c.66,0,1.26.09,1.81.26.55.17,1.03.42,1.44.74.41.32.75.7,1,1.16s.42.96.5,1.52l-2.98.5c-.05-.27-.12-.51-.23-.72-.1-.21-.23-.39-.37-.54-.15-.15-.31-.26-.51-.33-.19-.07-.41-.11-.64-.11-.41,0-.76.11-1.05.34-.29.22-.51.55-.66.98s-.23.94-.23,1.53.08,1.1.23,1.54.37.76.66.99c.29.23.64.35,1.05.35.24,0,.46-.04.65-.12s.36-.19.51-.34.28-.34.38-.56.17-.47.22-.75l2.98.48c-.08.58-.25,1.1-.5,1.56-.26.46-.59.85-1,1.18s-.9.58-1.45.75c-.55.17-1.16.26-1.82.26Z"/>
    <path class="cls-2" d="M101.46,114.57c-1.08,0-2.01-.22-2.79-.67s-1.38-1.07-1.79-1.87-.62-1.73-.62-2.79.21-2,.62-2.8,1.01-1.42,1.79-1.87,1.71-.67,2.79-.67,2.01.22,2.79.67c.78.45,1.37,1.07,1.79,1.87.41.8.62,1.73.62,2.8s-.21,1.99-.62,2.79c-.41.8-1.01,1.42-1.79,1.87-.78.45-1.71.67-2.79.67ZM101.46,112.1c.41,0,.76-.12,1.05-.36.28-.24.5-.58.64-1.01.14-.43.22-.93.22-1.51s-.07-1.08-.22-1.5c-.15-.43-.36-.76-.64-1-.28-.23-.63-.35-1.05-.35s-.76.12-1.05.35c-.28.23-.5.57-.64,1-.15.43-.22.93-.22,1.5s.07,1.08.22,1.51c.14.43.36.77.64,1.01.28.24.63.36,1.05.36Z"/>
    <path class="cls-2" d="M108.39,114.38v-10.35h2.97l.18,2.68h-.22c.16-.67.4-1.21.72-1.63.32-.41.69-.72,1.11-.91.42-.19.87-.29,1.34-.29.74,0,1.34.24,1.79.71.45.47.8,1.25,1.05,2.33h-.36c.17-.72.43-1.31.79-1.76.36-.45.78-.78,1.26-.98.48-.2.98-.31,1.5-.31.65,0,1.22.14,1.72.42.5.28.89.68,1.17,1.2.28.52.43,1.15.43,1.88v6.98h-3.22v-6.25c0-.52-.14-.92-.41-1.19s-.62-.41-1.05-.41c-.3,0-.57.07-.79.2-.22.14-.4.33-.51.57-.12.24-.18.53-.18.87v6.21h-3.1v-6.29c0-.47-.13-.85-.4-1.13-.27-.28-.61-.42-1.05-.42-.3,0-.56.07-.78.2-.23.14-.4.33-.53.58-.13.25-.19.56-.19.92v6.14h-3.23Z"/>
    <path class="cls-2" d="M129.55,114.51c-.72,0-1.35-.16-1.89-.48-.54-.32-.96-.77-1.25-1.36-.3-.59-.44-1.27-.44-2.04v-6.59h3.23v5.96c0,.58.15,1.04.45,1.37.3.33.71.5,1.24.5.36,0,.67-.08.93-.23.26-.15.47-.37.62-.66.15-.29.22-.63.22-1.03v-5.9h3.23v10.35h-3.04l-.06-2.61h.14c-.26.83-.66,1.49-1.2,1.99s-1.26.75-2.17.75Z"/>
    <path class="cls-2" d="M141.23,108.47v5.9h-3.23v-10.35h3.04l.06,2.61h-.14c.25-.82.65-1.48,1.19-1.99s1.27-.75,2.18-.75c.72,0,1.35.16,1.89.48.54.32.95.77,1.25,1.36.3.59.44,1.27.44,2.05v6.59h-3.23v-5.96c0-.58-.15-1.04-.44-1.37s-.71-.5-1.24-.5c-.35,0-.65.08-.92.23-.27.15-.48.37-.62.65-.15.28-.22.63-.22,1.04Z"/>
    <path class="cls-2" d="M151.65,102.82c-.46,0-.85-.15-1.18-.46s-.49-.67-.49-1.1.16-.8.49-1.1c.33-.3.72-.45,1.18-.45s.86.15,1.18.45c.33.3.49.67.49,1.11s-.16.79-.49,1.09c-.33.3-.72.45-1.18.45ZM150.04,114.38v-10.35h3.23v10.35h-3.23Z"/>
    <path class="cls-2" d="M160.21,114.57c-1.08,0-2.01-.22-2.79-.67s-1.38-1.07-1.79-1.87-.62-1.73-.62-2.79.21-2,.62-2.8,1.01-1.42,1.79-1.87,1.71-.67,2.79-.67c.66,0,1.26.09,1.81.26.55.17,1.03.42,1.44.74.41.32.75.7,1,1.16s.42.96.5,1.52l-2.98.5c-.05-.27-.12-.51-.23-.72-.1-.21-.23-.39-.37-.54-.15-.15-.31-.26-.51-.33-.19-.07-.41-.11-.64-.11-.41,0-.76.11-1.05.34-.29.22-.51.55-.66.98s-.23.94-.23,1.53.08,1.1.23,1.54.37.76.66.99c.29.23.64.35,1.05.35.24,0,.46-.04.65-.12s.36-.19.51-.34.28-.34.38-.56.17-.47.22-.75l2.98.48c-.08.58-.25,1.1-.5,1.56-.26.46-.59.85-1,1.18s-.9.58-1.45.75c-.55.17-1.16.26-1.82.26Z"/>
    <path class="cls-2" d="M169.77,114.56c-.66,0-1.25-.11-1.76-.34-.52-.23-.92-.56-1.21-1.02-.29-.45-.43-1.02-.43-1.7,0-.57.1-1.06.3-1.45.2-.39.48-.71.84-.96.36-.25.77-.43,1.23-.56.46-.13.96-.22,1.48-.26.59-.05,1.06-.1,1.42-.16.36-.06.62-.15.79-.26.17-.12.25-.28.25-.49v-.04c0-.24-.06-.44-.17-.61-.11-.17-.27-.29-.48-.38-.21-.09-.46-.13-.76-.13s-.56.04-.79.13c-.23.09-.42.21-.57.37-.15.16-.25.35-.32.56l-2.92-.38c.14-.59.4-1.11.8-1.56.4-.45.92-.8,1.56-1.05.64-.25,1.4-.37,2.26-.37.64,0,1.24.08,1.8.23s1.05.37,1.47.67c.42.29.75.65.98,1.08s.35.92.35,1.48v7.02h-3.04v-1.45h-.08c-.18.36-.42.66-.71.9-.29.24-.62.42-1,.55-.38.13-.81.19-1.29.19ZM170.75,112.42c.36,0,.69-.07.99-.22s.53-.35.7-.61c.17-.26.26-.56.26-.9v-.99c-.09.05-.21.1-.35.14-.14.04-.29.08-.46.12s-.33.06-.5.09c-.17.03-.33.05-.48.08-.32.04-.58.12-.81.22-.22.1-.39.24-.51.41-.12.17-.18.37-.18.6s.06.42.18.58.27.28.47.36c.2.08.43.12.68.12Z"/>
    <path class="cls-2" d="M178.04,114.38v-1.86l4.82-5.89v-.07h-4.66v-2.53h8.51v2.05l-4.47,5.71v.06h4.65v2.53h-8.85Z"/>
    <path class="cls-2" d="M190.65,102.82c-.46,0-.85-.15-1.18-.46s-.49-.67-.49-1.1.16-.8.49-1.1c.33-.3.72-.45,1.18-.45s.86.15,1.18.45c.33.3.49.67.49,1.11s-.16.79-.49,1.09c-.33.3-.72.45-1.18.45ZM189.04,114.38v-10.35h3.23v10.35h-3.23Z"/>
    <path class="cls-2" d="M199.21,114.57c-1.08,0-2.01-.22-2.79-.67s-1.38-1.07-1.79-1.87-.62-1.73-.62-2.79.21-2,.62-2.8,1.01-1.42,1.79-1.87,1.71-.67,2.79-.67,2.01.22,2.79.67c.78.45,1.37,1.07,1.79,1.87.41.8.62,1.73.62,2.8s-.21,1.99-.62,2.79c-.41.8-1.01,1.42-1.79,1.87-.78.45-1.71.67-2.79.67ZM199.21,112.1c.41,0,.76-.12,1.05-.36.28-.24.5-.58.64-1.01.14-.43.22-.93.22-1.51s-.07-1.08-.22-1.5c-.15-.43-.36-.76-.64-1-.28-.23-.63-.35-1.05-.35s-.76.12-1.05.35c-.28.23-.5.57-.64,1-.15.43-.22.93-.22,1.5s.07,1.08.22,1.51c.14.43.36.77.64,1.01.28.24.63.36,1.05.36Z"/>
    <path class="cls-2" d="M209.37,108.47v5.9h-3.23v-10.35h3.04l.06,2.61h-.14c.25-.82.65-1.48,1.19-1.99s1.27-.75,2.18-.75c.72,0,1.35.16,1.89.48.54.32.95.77,1.25,1.36.3.59.44,1.27.44,2.05v6.59h-3.23v-5.96c0-.58-.15-1.04-.44-1.37s-.71-.5-1.24-.5c-.35,0-.65.08-.92.23-.27.15-.48.37-.62.65-.15.28-.22.63-.22,1.04Z"/>
    <path class="cls-2" d="M223,114.57c-1.08,0-2.01-.21-2.79-.64-.78-.43-1.38-1.04-1.8-1.84s-.62-1.75-.62-2.85.21-1.99.62-2.79c.42-.8,1.01-1.43,1.77-1.87.76-.45,1.67-.67,2.7-.67.73,0,1.4.11,2,.34.61.23,1.14.57,1.58,1.01s.79,1,1.04,1.65c.24.65.37,1.41.37,2.27v.81h-8.94v-1.88h7.4l-1.51.44c0-.48-.07-.89-.22-1.24-.14-.34-.36-.61-.64-.8-.28-.18-.64-.28-1.06-.28s-.77.09-1.06.28c-.29.19-.51.45-.66.79-.15.34-.23.73-.23,1.18v1.35c0,.53.09.97.26,1.33.18.36.42.62.74.8s.68.26,1.1.26c.29,0,.55-.04.79-.12s.44-.2.61-.36c.17-.16.3-.36.38-.58l2.88.47c-.17.59-.47,1.11-.89,1.55-.42.44-.96.78-1.6,1.02-.64.24-1.39.36-2.23.36Z"/>
  </g>
  <g>
    <g>
      <path class="cls-2" d="M89.56,67.83c-.23-.59-.7-1.23-1.85-1.23-1.05,0-1.83.53-1.83,1.27,0,.66.46,1,1.47,1.25l1.27.31c1.53.37,2.27,1.13,2.27,2.32,0,1.48-1.35,2.56-3.34,2.56-1.75,0-2.95-.77-3.25-2.23l1.25-.31c.23.92.91,1.38,1.98,1.38,1.23,0,2-.6,2-1.34,0-.59-.41-1-1.27-1.2l-1.43-.33c-1.57-.37-2.27-1.16-2.27-2.34,0-1.45,1.34-2.47,3.14-2.47,1.69,0,2.62.81,3.03,2.03l-1.18.33Z"/>
      <path class="cls-2" d="M92.23,69.9c0-2.61,1.54-4.43,3.85-4.43,1.8,0,3.16,1.07,3.39,2.67h-1.31c-.2-.78-.89-1.49-2.05-1.49-1.54,0-2.56,1.27-2.56,3.21s1,3.27,2.56,3.27c1.02,0,1.8-.56,2.05-1.49h1.31c-.22,1.51-1.47,2.67-3.36,2.67-2.41,0-3.88-1.85-3.88-4.41Z"/>
      <path class="cls-2" d="M106.51,65.58h1.31v8.55h-1.31v-1.45h-.09c-.4.87-1.25,1.56-2.54,1.56-1.6,0-2.76-1.05-2.76-3.23v-5.43h1.31v5.35c0,1.25.78,2.05,1.87,2.05.98,0,2.21-.73,2.21-2.34v-5.06Z"/>
      <path class="cls-2" d="M109.66,69.9c0-2.67,1.56-4.43,3.88-4.43s3.88,1.76,3.88,4.43-1.56,4.41-3.88,4.41-3.88-1.76-3.88-4.41ZM116.09,69.9c0-1.72-.8-3.25-2.56-3.25s-2.56,1.54-2.56,3.25.8,3.23,2.56,3.23,2.56-1.51,2.56-3.23Z"/>
      <path class="cls-2" d="M120.55,74.14h-1.31v-11.4h1.31v11.4Z"/>
      <path class="cls-2" d="M122.39,71.71c0-1.96,1.73-2.31,3.32-2.52,1.56-.2,2.21-.14,2.21-.78v-.04c0-1.1-.6-1.74-1.8-1.74s-1.94.67-2.23,1.29l-1.25-.45c.67-1.56,2.14-2,3.43-2,1.09,0,3.16.31,3.16,3.03v5.64h-1.31v-1.16h-.07c-.27.56-1.05,1.36-2.54,1.36-1.63,0-2.92-.96-2.92-2.63ZM127.92,71.04v-1.2c-.22.27-1.72.42-2.27.49-1.02.13-1.94.45-1.94,1.45,0,.91.76,1.38,1.8,1.38,1.56,0,2.41-1.05,2.41-2.12Z"/>
      <path class="cls-2" d="M135.34,69.88c0-2.7,1.49-4.41,3.65-4.41,1.67,0,2.18,1.02,2.47,1.47h.11v-4.21h1.31v11.4h-1.27v-1.31h-.16c-.29.47-.85,1.49-2.49,1.49-2.14,0-3.63-1.71-3.63-4.43ZM141.6,69.86c0-1.92-.85-3.21-2.45-3.21s-2.49,1.4-2.49,3.21.85,3.27,2.49,3.27,2.45-1.34,2.45-3.27Z"/>
      <path class="cls-2" d="M144.94,63.27c0-.49.42-.89.94-.89s.94.4.94.89-.42.89-.94.89-.94-.4-.94-.89ZM145.2,65.58h1.31v8.55h-1.31v-8.55Z"/>
    </g>
    <g>
      <polygon class="cls-4" points="3.76 76.34 3.76 94.39 12.78 85.37 3.76 76.34"/>
      <polygon class="cls-3" points="3.76 4.12 3.76 76.34 39.85 40.23 3.76 4.12"/>
      <polygon class="cls-4" points="57.89 4.12 48.87 13.15 57.89 22.17 57.89 4.12"/>
      <polygon class="cls-1" points="21.81 58.28 57.89 94.39 57.89 22.17 21.81 58.28"/>
    </g>
  </g>
</svg>